<?xml version="1.0" standalone="no"?>
<!DOCTYPE svg PUBLIC "-//W3C//DTD SVG 20010904//EN"
 "http://www.w3.org/TR/2001/REC-SVG-20010904/DTD/svg10.dtd">
<svg version="1.0" xmlns="http://www.w3.org/2000/svg"
 width="800.000000pt" height="800.000000pt" viewBox="0 0 800.000000 800.000000"
 preserveAspectRatio="xMidYMid meet">

<g transform="translate(0.000000,800.000000) scale(0.100000,-0.100000)"
fill="#000000" stroke="none">
<path d="M4715 6693 c-40 -12 -114 -16 -365 -17 -347 -1 -401 -8 -599 -78
-209 -73 -346 -162 -526 -343 l-131 -130 -64 46 c-36 25 -157 110 -270 189
-113 79 -240 170 -284 202 -43 33 -81 57 -83 54 -7 -7 4 -33 83 -213 118 -264
246 -508 344 -653 51 -76 70 -115 70 -144 0 -14 -20 -99 -44 -188 -25 -90 -74
-273 -110 -408 -110 -412 -112 -416 -266 -685 -174 -304 -254 -499 -267 -651
-7 -82 7 -100 28 -36 32 100 116 276 200 419 284 487 336 583 419 778 78 184
160 451 160 527 1 62 15 55 142 -67 204 -199 398 -345 606 -457 50 -27 92 -56
92 -64 0 -17 -165 -350 -220 -444 -38 -64 -78 -115 -86 -107 -2 2 9 57 25 123
26 107 81 357 81 369 0 3 -4 5 -10 5 -16 0 -69 -114 -110 -239 -60 -178 -73
-272 -68 -498 4 -234 16 -260 52 -117 25 98 77 202 184 367 164 252 208 344
241 506 20 101 20 101 -47 101 -85 0 -402 224 -635 449 -218 211 -381 425
-552 726 -38 66 -86 148 -108 183 -90 143 -3 58 169 -165 329 -426 572 -684
874 -930 113 -91 165 -123 203 -123 42 0 50 21 38 99 -6 38 -11 99 -11 136 0
63 -1 67 -42 112 -24 25 -227 184 -453 353 -410 308 -543 417 -728 599 -96 94
-124 127 -113 138 2 3 62 -35 133 -84 70 -49 272 -183 448 -298 506 -332 758
-517 815 -600 40 -58 71 -95 80 -95 5 0 4 17 -2 38 -28 103 -100 195 -230 292
-76 57 -474 324 -545 365 -18 11 -33 25 -33 33 0 59 162 249 280 328 174 118
402 194 622 209 46 3 102 8 126 10 37 4 42 2 42 -15 0 -11 -4 -20 -10 -20 -5
0 -10 -5 -10 -11 0 -9 37 -10 143 -4 302 18 378 8 522 -66 52 -27 116 -54 142
-60 72 -18 125 -47 121 -67 -3 -13 13 -22 75 -40 107 -31 165 -62 236 -127 84
-78 174 -226 183 -301 4 -35 -15 -42 -30 -10 -20 44 -122 172 -122 152 0 -2
20 -44 44 -93 65 -128 79 -194 73 -328 -6 -132 -34 -221 -108 -335 -26 -41
-45 -77 -42 -80 9 -9 128 125 156 177 46 86 68 191 74 358 6 172 -4 229 -61
344 -38 75 -126 176 -190 220 -23 15 -72 40 -111 56 -38 16 -86 39 -105 51
-70 43 -138 73 -200 89 -34 9 -102 34 -150 56 -56 25 -110 41 -149 46 l-62 6
22 24 c13 13 40 31 61 40 74 33 34 44 -57 16z"/>
<path d="M5070 6143 c0 -41 -35 -153 -67 -214 -42 -82 -145 -211 -215 -270
-148 -126 -267 -197 -489 -289 -79 -33 -150 -68 -157 -77 -41 -56 -126 -414
-153 -643 -25 -219 9 -502 85 -712 18 -51 75 -193 125 -316 168 -406 222 -614
225 -857 0 -77 -2 -152 -7 -167 -13 -48 17 -33 41 20 32 68 49 144 62 274 25
238 -18 514 -137 883 -50 155 -54 176 -51 240 4 49 13 85 31 121 29 57 94 120
133 130 18 5 85 -8 193 -34 91 -23 195 -45 231 -48 60 -6 67 -4 88 18 12 14
38 62 58 108 19 45 47 99 63 119 49 63 88 134 101 187 17 66 25 76 90 109 61
30 110 71 110 92 0 18 -38 76 -94 143 -47 55 -84 146 -72 176 3 7 29 25 59 38
29 13 69 37 89 55 53 46 114 147 139 230 51 172 0 330 -153 475 -179 168 -199
186 -209 186 -24 0 0 -82 59 -202 77 -154 102 -245 102 -358 -1 -98 -13 -135
-83 -262 -44 -79 -48 -93 -49 -155 -1 -98 16 -141 88 -228 35 -42 64 -82 64
-90 0 -17 -45 -49 -91 -64 -49 -16 -65 -36 -89 -113 -25 -81 -35 -91 -81 -78
-43 13 -99 13 -99 1 0 -15 42 -41 65 -41 12 0 29 -6 39 -13 16 -11 14 -15 -17
-52 -39 -46 -58 -81 -87 -158 -30 -81 -34 -82 -138 -63 -170 31 -348 92 -517
176 -87 43 -161 77 -163 75 -2 -2 1 -19 7 -38 10 -30 24 -42 91 -76 l78 -41
-52 -103 c-29 -56 -56 -104 -62 -106 -14 -5 -40 91 -58 214 -34 228 4 507 105
763 34 85 36 105 12 100 -42 -8 -123 -221 -164 -428 -28 -142 -30 -325 -6
-450 20 -99 43 -173 127 -405 106 -292 195 -623 188 -697 l-3 -33 -16 30 c-9
17 -31 80 -48 140 -38 131 -108 327 -201 560 -81 205 -106 295 -121 440 -24
237 56 633 167 822 28 48 46 59 164 102 101 37 269 125 369 194 185 127 313
307 340 479 11 62 4 166 -12 186 -14 17 -27 15 -27 -5z"/>
<path d="M4076 5885 c-65 -25 -123 -42 -128 -39 -5 3 -6 15 -2 27 6 21 6 21
-17 4 -13 -9 -40 -25 -59 -36 -19 -10 -44 -28 -54 -40 l-19 -21 54 -2 c91 -3
139 2 195 23 62 23 178 105 169 119 -9 14 -6 14 -139 -35z"/>
<path d="M4905 5505 c-16 -8 -41 -23 -55 -34 l-25 -21 66 6 c58 6 71 3 120
-21 29 -15 78 -43 107 -61 61 -39 64 -40 85 -16 27 30 20 48 -33 82 -97 62
-210 90 -265 65z"/>
<path d="M4797 5313 c-15 -15 -5 -30 18 -30 35 0 58 -23 122 -120 30 -46 58
-83 64 -83 5 0 9 15 9 34 0 48 16 85 51 122 17 18 27 34 22 37 -4 3 -39 14
-77 26 -65 20 -195 29 -209 14z"/>
<path d="M3367 4503 c-8 -16 -31 -58 -51 -94 -140 -256 -171 -572 -85 -862 56
-186 134 -312 274 -436 130 -116 263 -180 508 -245 107 -29 141 -32 135 -14
-2 6 -76 64 -165 127 -191 138 -265 202 -337 290 -129 158 -206 310 -259 510
-29 110 -30 126 -31 316 0 168 3 217 22 308 12 59 22 112 22 118 0 19 -19 8
-33 -18z"/>
<path d="M2641 4027 c-130 -131 -205 -232 -269 -361 -79 -159 -97 -233 -95
-401 2 -150 11 -226 30 -232 7 -3 13 22 18 74 19 230 103 431 382 910 86 149
72 151 -66 10z"/>
<path d="M2839 4060 c-86 -147 -157 -329 -184 -471 -55 -291 35 -554 247 -724
171 -137 398 -205 681 -205 80 0 97 3 97 15 0 8 -2 15 -5 15 -31 0 -271 46
-323 61 -249 76 -441 292 -519 586 -22 82 -27 126 -31 268 -5 184 4 257 45
388 31 99 27 128 -8 67z"/>
<path d="M1420 2444 c-48 -20 -97 -70 -125 -124 -12 -25 -55 -124 -95 -220
-40 -96 -78 -186 -85 -199 -11 -22 -18 -9 -87 165 -42 104 -74 194 -71 201 3
6 12 14 21 16 10 3 -21 5 -68 5 -47 0 -76 -3 -65 -5 11 -3 27 -11 36 -19 8 -8
60 -115 114 -239 86 -197 115 -252 115 -215 0 5 55 129 121 274 134 294 163
337 237 360 41 13 43 15 17 15 -16 0 -46 -7 -65 -15z"/>
<path d="M1515 2293 c-112 -3 -127 -5 -105 -16 l25 -13 0 -219 0 -219 -25 -13
c-21 -11 -3 -13 120 -13 l146 0 17 47 c19 51 18 66 -3 28 -20 -38 -70 -56
-143 -53 l-62 3 -3 103 -3 102 69 0 c39 0 73 -5 80 -12 9 -9 12 -3 12 27 0 34
-2 37 -13 21 -10 -14 -25 -16 -77 -14 l-65 3 0 105 0 105 76 3 c60 2 80 -1 93
-13 15 -15 16 -14 16 14 0 19 -5 30 -12 29 -7 -1 -71 -4 -143 -5z"/>
<path d="M3208 2060 l-3 -244 -25 -7 c-15 -4 5 -7 50 -7 41 0 66 2 55 5 -41
10 -45 29 -45 210 0 95 3 173 8 173 4 0 90 -90 192 -200 l185 -199 5 242 5
241 25 7 c15 4 -5 7 -50 7 -41 -1 -65 -3 -52 -5 13 -3 27 -16 33 -29 12 -32
12 -357 0 -352 -5 2 -86 86 -181 188 -95 102 -178 192 -186 199 -12 13 -14
-22 -16 -229z"/>
<path d="M3920 2291 c-106 -33 -180 -133 -180 -246 0 -92 55 -186 134 -228 58
-31 184 -31 241 0 69 37 83 59 87 141 l3 72 -40 -1 c-22 0 -34 -3 -27 -6 8 -3
12 -29 12 -77 0 -83 -8 -96 -79 -121 -57 -20 -107 -19 -156 4 -80 37 -118 106
-118 216 0 110 38 179 118 216 46 21 97 24 146 8 38 -13 87 -54 99 -84 7 -16
9 -12 9 17 1 20 -6 43 -14 52 -36 36 -170 56 -235 37z"/>
<path d="M4573 2280 c-41 -24 -53 -48 -53 -102 0 -49 10 -61 125 -153 75 -59
95 -89 95 -140 0 -55 -30 -100 -75 -115 -120 -40 -218 61 -171 174 14 33 14
37 1 26 -24 -20 -37 -85 -25 -128 17 -66 75 -105 156 -105 119 0 194 103 153
210 -14 37 -40 64 -129 135 -102 81 -120 133 -62 178 44 35 111 18 132 -34 7
-17 9 -13 9 20 1 39 -1 42 -30 48 -55 11 -93 7 -126 -14z"/>
<path d="M4830 2255 c0 -39 1 -39 13 -15 12 23 19 25 90 28 l77 3 -2 -223 -3
-222 -25 -13 c-22 -11 -16 -13 55 -13 71 0 77 2 55 13 l-25 13 -3 222 -2 223
77 -3 c71 -3 78 -5 90 -28 12 -24 13 -24 13 15 l0 40 -205 0 -205 0 0 -40z"/>
<path d="M6777 2286 c-97 -35 -149 -93 -169 -189 -32 -153 72 -290 232 -304
117 -11 214 34 267 124 24 42 28 58 28 128 0 69 -4 86 -28 127 -15 26 -43 59
-62 74 -67 50 -187 68 -268 40z m193 -33 c41 -22 59 -40 83 -82 26 -46 30 -64
30 -126 0 -62 -4 -80 -30 -126 -24 -42 -42 -60 -83 -81 -70 -37 -130 -37 -201
0 -73 38 -111 109 -111 207 0 98 38 169 111 207 71 37 131 37 201 1z"/>
<path d="M1795 2283 c42 -10 45 -27 45 -238 0 -211 -3 -228 -45 -238 -11 -3
16 -5 60 -6 71 -1 77 1 55 12 l-25 13 -3 222 -2 222 53 0 c65 0 102 -24 116
-77 22 -78 -24 -143 -100 -143 l-40 0 34 -32 c18 -18 52 -60 74 -93 65 -96
108 -126 176 -124 l32 1 -29 8 c-38 12 -59 32 -122 117 -30 39 -58 75 -64 78
-15 10 -12 25 6 25 9 0 31 15 49 33 65 65 52 171 -25 209 -28 14 -59 18 -150
17 -63 -1 -106 -3 -95 -6z"/>
<path d="M2260 2277 l25 -13 0 -219 0 -219 -25 -13 c-21 -11 -3 -13 120 -13
l146 0 17 47 c19 51 18 66 -3 28 -20 -38 -70 -56 -143 -53 l-62 3 -3 208 c-1
127 2 215 8 227 5 10 20 21 32 23 13 2 -13 5 -57 5 -71 2 -77 0 -55 -11z"/>
<path d="M2625 2283 c11 -3 23 -10 27 -17 4 -6 8 -84 8 -173 0 -168 6 -201 43
-242 91 -99 281 -69 326 52 6 16 11 100 11 190 0 89 4 167 8 173 4 7 16 14 27
17 11 2 -11 5 -50 4 -38 0 -60 -2 -48 -4 32 -6 35 -27 31 -211 -3 -175 -7
-188 -72 -236 -38 -29 -124 -29 -163 0 -61 46 -68 72 -68 259 l0 169 25 13
c22 11 17 13 -50 12 -41 -1 -66 -4 -55 -6z"/>
<path d="M5307 2280 c20 -8 21 -15 25 -187 3 -165 5 -181 26 -215 71 -113 256
-117 329 -7 27 42 28 45 32 221 3 172 4 180 25 188 15 6 2 9 -44 9 -49 0 -59
-3 -42 -9 22 -9 22 -12 22 -187 0 -159 -2 -181 -20 -210 -26 -44 -58 -63 -116
-69 -66 -7 -111 18 -142 77 -21 41 -22 54 -20 214 l3 169 25 7 c15 4 -4 7 -50
7 -52 1 -68 -2 -53 -8z"/>
<path d="M5855 2283 c42 -10 45 -27 45 -238 0 -211 -3 -228 -45 -238 -11 -3
46 -5 126 -6 199 -1 260 21 316 117 24 41 28 58 28 127 0 69 -4 86 -28 127
-56 96 -117 118 -316 117 -80 -1 -137 -3 -126 -6z m332 -45 c119 -79 119 -307
0 -386 -35 -24 -52 -27 -143 -30 l-104 -4 0 227 0 227 104 -4 c91 -3 108 -6
143 -30z"/>
<path d="M6405 2283 c42 -10 45 -27 45 -238 0 -211 -3 -228 -45 -238 -11 -3
16 -5 60 -6 71 -1 77 1 55 12 l-25 13 0 219 0 219 25 13 c22 11 16 13 -55 12
-44 -1 -71 -3 -60 -6z"/>
</g>
</svg>
